<svg t="1685678395157" class="icon" viewBox="0 0 1024 1024" version="1.1"
    xmlns="http://www.w3.org/2000/svg" p-id="1643" width="200" height="200">
    <path
        d="M911.365198 504.44186c-42.802852 170.44495-197.642382 222.041072-239.821017 222.041072-0.38374 0-0.751107 0-1.087774 0-25.775037-0.591471-46.176692-9.91379-59.175751-26.989701-10.505261-13.68672-20.61041-39.045271-9.577123-81.848123 3.021823-11.464099 14.854313-18.339694 26.270317-15.397688 11.512195 2.89391 18.515702 14.646582 15.541975 26.094308-5.29254 20.449751-4.541433 36.519752 2.046612 45.201481 6.043646 7.946996 17.379832 9.865695 25.854854 9.993608 0.207731 0.079818 0.463558 0.079818 0.719384 0.079818 32.905434 0 161.378457-46.080501 197.386556-189.535751 34.089399-135.604444-53.419653-253.924223-149.163251-306.480206-8.985652-4.956895-222.233454-118.687146-432.5546 55.323003-81.592296 67.538209-134.021389 177.080068-140.272767 293.081035-5.212722 97.293907 22.833031 184.882777 77.020164 240.413512 152.520719 156.421562 478.507188 110.500697 594.60537-0.207731 8.601912-8.154727 22.240537-7.898901 30.5549 0.704035 8.234545 8.522094 7.898901 22.128997-0.704035 30.299073-70.687946 67.3622-206.260667 112.995517-342.951863 112.995517-116.352985 0-233.617735-33.081443-312.444035-113.907283-62.533218-64.084551-94.976118-163.42507-89.107457-272.551466 6.843872-127.768989 65.011666-248.807692 155.670455-323.812967 232.69062-192.525851 471.0084-65.347311 481.002009-59.895135C850.894965 210.305797 950.954869 346.932524 911.365198 504.44186L911.365198 504.44186zM668.44254 595.612303c-49.326429 79.274508-134.021389 130.567731-215.821417 130.567731-30.426987 0-58.760289-6.92369-84.198657-20.61041-40.628326-21.825075-69.968561-59.799968-82.552158-106.775862-16.372899-61.110823-3.741207-131.494846 34.536584-193.10095 38.917358-62.549591 129.863696-129.032772 221.913159-129.032772 28.285207 0 54.602595 6.427386 78.106916 19.059078 45.665039 24.559349 75.005274 59.767222 86.9974 104.601336C731.055576 488.500796 679.107437 578.488297 668.44254 595.612303L668.44254 595.612303zM665.756361 411.353742c-8.809643-32.905434-31.019481-59.144028-65.858964-77.899184-17.124006-9.193383-36.471656-13.894452-57.577347-13.894452-73.661673 0-151.977343 55.274908-185.218422 108.709911-32.122605 51.628868-42.899042 109.717867-29.547966 159.491481 9.609869 35.975353 30.891568 63.717184 61.398372 80.121805 19.010983 10.201339 40.500413 15.397688 63.669088 15.397688 67.202565 0 137.50677-43.266409 179.174776-110.213147C656.689868 532.951171 680.529833 466.595904 665.756361 411.353742L665.756361 411.353742z"
        p-id="1644" fill="#9F9F9F"></path>
</svg>