<svg t="1689300956648" class="icon" viewBox="0 0 1024 1024" version="1.1"
    xmlns="http://www.w3.org/2000/svg" p-id="1703" width="200" height="200">
    <path
        d="M896 914.285714a17.188571 17.188571 0 0 1-12.8-5.485714l-204.8-204.8a17.92 17.92 0 1 1 25.6-25.6l204.8 204.8a17.554286 17.554286 0 0 1 0 25.6 17.188571 17.188571 0 0 1-12.8 5.485714z"
        p-id="1704" fill="#ffffff"></path>
    <path
        d="M457.142857 804.571429a347.428571 347.428571 0 1 1 347.428572-347.428572 347.794286 347.794286 0 0 1-347.428572 347.428572z m0-658.285715a310.857143 310.857143 0 1 0 310.857143 310.857143A311.222857 311.222857 0 0 0 457.142857 146.285714z"
        p-id="1705" fill="#ffffff"></path>
</svg>