<svg t="1686978386380" class="icon" viewBox="0 0 1024 1024" version="1.1"
    xmlns="http://www.w3.org/2000/svg" p-id="3892" width="30" height="30">
    <path
        d="M512 1024C229.216 1024 0 794.784 0 512S229.216 0 512 0s512 229.216 512 512-229.216 512-512 512z m165.696-597.984v0.032c13.248-8.736 31.008-26.816 35.2-44.576a76.576 76.576 0 0 1-44.576 13.216c18.08-8.704 31.328-21.952 35.84-44.576-17.44 9.344-30.688 18.08-53.28 22.624-49.12-58.496-165.76-13.28-143.168 75.936-81.088-4.224-130.24-44.64-170.304-89.216-22.272 35.84-4.48 94.016 26.88 111.808-18.144 0-27.2-4.192-35.904-8.736 0 44.608 27.136 71.424 63.04 84.992H355.52c13.28 30.72 35.872 53.312 75.936 53.312-26.496 27.136-80.448 40.384-120.512 35.84 35.84 26.848 75.936 44.608 134.4 40.096 138.304-4.544 232.32-107.616 232.32-250.752z"
        p-id="3893" fill="#1296db"></path>
</svg>