<svg t="1686300344956" class="icon" viewBox="0 0 1024 1024" version="1.1"
    xmlns="http://www.w3.org/2000/svg" p-id="3409" width="20" height="20">
    <path
        d="M512 64c-123.71 0-224 100.29-224 224s100.29 224 224 224 224-100.29 224-224S635.71 64 512 64z m0 384a160 160 0 1 1 160-160 160 160 0 0 1-160 160z"
        p-id="3410" fill="#8a8a8a"></path>
    <path
        d="M512 512c212.08 0 384 171.92 384 384h64c0-247.42-200.58-448-448-448S64 648.58 64 896h64c0-212.08 171.92-384 384-384z"
        p-id="3411" fill="#8a8a8a"></path>
    <path d="M96 896m-32 0a32 32 0 1 0 64 0 32 32 0 1 0-64 0Z" p-id="3412" fill="#8a8a8a"></path>
    <path d="M928 896m-32 0a32 32 0 1 0 64 0 32 32 0 1 0-64 0Z" p-id="3413" fill="#8a8a8a"></path>
    <path
        d="M512 64c-123.71 0-224 100.29-224 224s100.29 224 224 224 224-100.29 224-224S635.71 64 512 64z m0 384a160 160 0 1 1 160-160 160 160 0 0 1-160 160z"
        opacity=".1" p-id="3414" fill="#8a8a8a"></path>
    <path
        d="M512 512c212.08 0 384 171.92 384 384h64c0-247.42-200.58-448-448-448S64 648.58 64 896h64c0-212.08 171.92-384 384-384z"
        opacity=".1" p-id="3415" fill="#8a8a8a"></path>
    <path d="M96 896m-32 0a32 32 0 1 0 64 0 32 32 0 1 0-64 0Z" p-id="3416" fill="#8a8a8a"></path>
    <path d="M928 896m-32 0a32 32 0 1 0 64 0 32 32 0 1 0-64 0Z" p-id="3417" fill="#8a8a8a"></path>
</svg>